<svg xmlns="http://www.w3.org/2000/svg" id="favicon" viewBox="0 0 1024 545.11">
    <style>@media (prefers-color-scheme:dark){path{fill:#fff}}</style>
    <path d="M738.61 0h114.11c220.49 0 234.79 326.74 3.9 326.74H668.67c12.49-76.6 54.85-106.24 89.73-106.24h98.2c73-.41 70.47-115.54-1.61-115.54h-80.56c-135.2 0-180.63 99.34-180.63 173.5v266.66H485.22v-263.1C485.22 119.72 611.48 0 738.61 0M417.22 220.5H273.43c-34.88 0-77.51 29.65-89.99 106.24h227.39v-44.73c-.02-20.5 1.08-40.36 6.39-61.51M253.38 0C126.25 4.65 0 119.72 0 282.02v263.1h108.58V278.46c0-74.18 45.59-173.5 180.67-173.5h169.77C485.87 59.05 508.96 23.44 562.05.01H253.38Z"/>
</svg>
